<?xml version="1.0" standalone="no"?>
<!DOCTYPE svg PUBLIC "-//W3C//DTD SVG 20010904//EN"
 "http://www.w3.org/TR/2001/REC-SVG-20010904/DTD/svg10.dtd">
<svg version="1.0" xmlns="http://www.w3.org/2000/svg"
 width="12500.000000pt" height="12500.000000pt" viewBox="0 0 12500.000000 12500.000000"
 preserveAspectRatio="xMidYMid meet">
<metadata>
Created by potrace 1.16, written by Peter Selinger 2001-2019
</metadata>
<g transform="translate(0.000000,12500.000000) scale(0.100000,-0.100000)"
fill="#000000" stroke="none">
<path d="M60145 85360 c-1597 -76 -3131 -489 -4645 -1250 -1693 -852 -3217
-2087 -4431 -3590 -1403 -1736 -2296 -3740 -2544 -5705 -52 -412 -69 -695 -68
-1145 0 -483 20 -774 84 -1225 220 -1546 876 -2990 1939 -4270 383 -461 886
-962 1380 -1376 218 -183 720 -570 788 -608 9 -5 15 -12 12 -14 -3 -3 -108
-60 -235 -127 -2948 -1573 -5214 -3528 -6579 -5678 -922 -1452 -1430 -2980
-1526 -4587 -14 -229 -14 -840 0 -1055 43 -687 133 -1255 305 -1935 287 -1135
754 -2246 1385 -3296 467 -776 1030 -1526 1697 -2261 206 -226 748 -769 985
-986 2259 -2064 5185 -3668 8493 -4657 1807 -540 3820 -907 5765 -1050 1096
-80 2307 -91 3400 -30 3799 214 7322 1284 10184 3093 2200 1390 3936 3274
4907 5325 637 1345 939 2676 939 4142 0 693 -63 1337 -201 2045 -79 404 -157
639 -394 1180 -254 581 -312 774 -303 1010 8 190 66 317 211 457 132 129 242
188 665 362 528 218 867 371 1333 602 1123 558 2070 1161 2946 1876 574 469
1168 1054 1631 1606 1322 1578 2170 3482 2496 5602 70 453 94 735 103 1170 12
651 -44 1221 -182 1842 -511 2297 -2109 4269 -4340 5354 -1363 663 -2905 958
-4410 844 -789 -60 -1469 -203 -2047 -430 -167 -66 -496 -224 -653 -315 -556
-319 -1043 -759 -1417 -1280 -974 -1358 -1140 -3274 -426 -4925 418 -967 1114
-1775 2001 -2322 186 -115 581 -313 782 -392 519 -206 1075 -337 1685 -397
215 -22 721 -25 915 -6 950 93 1721 440 2330 1047 316 315 548 641 755 1060
343 697 510 1460 510 2333 0 468 -37 843 -126 1275 -243 1180 -790 2227 -1597
3054 -141 144 -146 151 -110 142 21 -5 110 -25 198 -45 88 -20 259 -65 380
-99 2579 -740 4420 -2623 4744 -4855 40 -272 46 -377 45 -745 0 -308 -4 -387
-23 -545 -66 -545 -182 -1004 -386 -1520 -468 -1183 -1145 -2004 -2013 -2439
-808 -405 -1775 -511 -3147 -345 -513 62 -930 132 -2065 349 -617 118 -859
162 -1280 235 -671 117 -1315 240 -2895 554 -2551 507 -3674 707 -4940 876
-1398 186 -2455 264 -3610 264 -708 0 -1112 -18 -1695 -74 -3903 -380 -6622
-2210 -8334 -5610 -539 -1069 -984 -2287 -1256 -3441 -163 -688 -262 -1330
-321 -2079 -17 -216 -23 -1016 -10 -1266 79 -1472 463 -2784 1153 -3938 683
-1141 1779 -2130 3133 -2827 1743 -897 3659 -1164 5265 -734 756 202 1418 547
2030 1055 156 129 534 507 662 660 748 898 1186 1973 1300 3185 17 188 17 845
0 1025 -116 1188 -519 2189 -1226 3045 -118 143 -461 488 -601 604 -756 628
-1613 997 -2705 1165 -2211 340 -3931 -494 -4875 -2364 -393 -780 -616 -1626
-707 -2685 -21 -239 -17 -1117 5 -1375 77 -880 257 -1691 541 -2434 l26 -68
-28 18 c-51 33 -226 167 -372 285 -1030 831 -1736 1792 -2091 2849 -181 538
-261 1027 -261 1595 -1 510 64 969 207 1475 508 1796 1902 3445 3800 4495
1535 850 3309 1221 5010 1049 565 -57 1758 -285 2640 -505 797 -199 1719 -490
2640 -834 1537 -573 2902 -1306 4069 -2183 1099 -827 1807 -1840 2131 -3050
299 -1119 283 -2426 -50 -4099 -360 -1806 -992 -3286 -1941 -4543 -1251 -1658
-3019 -2794 -5157 -3315 -489 -119 -1002 -206 -1532 -260 -652 -66 -1497 -73
-2210 -19 -2525 190 -5152 1122 -7335 2602 -2321 1574 -4013 3624 -5041 6108
-529 1279 -868 2677 -994 4094 -64 724 -71 1578 -20 2290 144 1976 664 3859
1539 5575 840 1647 1970 3072 3341 4215 1046 871 2176 1545 3445 2055 247 99
569 219 718 266 39 13 72 26 72 30 0 3 -41 -2 -91 -12 -705 -145 -1530 -186
-2249 -114 -2135 217 -4093 1321 -5386 3037 -1190 1580 -1689 3522 -1408 5478
318 2218 1405 3835 3216 4784 1289 675 2943 956 4630 786 1439 -145 2815 -635
3648 -1300 146 -117 157 -128 93 -96 -96 48 -397 173 -543 226 -1281 467
-2629 451 -3814 -45 -1337 -558 -2311 -1670 -2560 -2920 -49 -245 -60 -362
-60 -640 -1 -265 7 -368 45 -585 174 -998 811 -1926 1853 -2702 706 -526 1338
-796 2116 -903 158 -22 600 -31 782 -16 890 75 1741 440 2468 1061 134 115
403 384 523 523 773 900 1196 2056 1128 3087 -42 632 -209 1221 -527 1860
-601 1204 -1645 2286 -2891 2993 -188 108 -577 302 -802 402 -1106 490 -2202
764 -3401 850 -258 19 -885 27 -1135 15z"/>
<path d="M27925 85340 c-702 -28 -1337 -74 -1974 -145 -4089 -456 -7734 -1898
-10941 -4328 -1325 -1004 -2662 -2267 -3771 -3562 -1898 -2215 -3295 -4701
-4139 -7362 -574 -1810 -901 -3647 -1010 -5673 -43 -812 -41 -1913 5 -2745
262 -4685 1827 -8823 4694 -12408 619 -774 1187 -1403 1942 -2152 1756 -1740
3621 -3104 5674 -4151 2655 -1353 5555 -2115 8715 -2289 835 -46 1849 -47
2690 -5 2732 139 5275 711 7620 1715 739 316 1556 725 2247 1126 1505 871
2893 1915 4258 3204 288 271 1147 1133 1277 1280 143 162 338 395 344 410 3 6
-42 81 -99 165 -664 988 -1296 2296 -1695 3510 -500 1519 -666 3074 -491 4610
237 2098 1100 4121 2504 5875 988 1234 2198 2291 3625 3167 369 226 682 398
1159 636 l374 187 -44 36 c-296 245 -490 410 -614 520 -182 161 -743 721 -881
879 -678 774 -1131 1498 -1451 2314 -269 689 -420 1392 -485 2266 -17 221 -16
1038 0 1295 24 374 74 895 112 1164 l9 64 -174 258 c-855 1266 -1824 2424
-3086 3688 -3360 3364 -7206 5404 -11591 6150 -867 148 -1644 231 -2728 292
-240 14 -1787 20 -2075 9z m950 -9060 c1731 -94 3804 -686 5635 -1611 1756
-886 3263 -2046 4431 -3409 2147 -2507 3139 -5672 2919 -9320 -153 -2536 -861
-4754 -2125 -6655 -447 -672 -913 -1242 -1490 -1821 -969 -971 -2054 -1752
-3330 -2394 -1683 -847 -3548 -1353 -5470 -1485 -1470 -100 -2969 43 -4519
431 -2152 539 -4099 1521 -5631 2840 -442 381 -899 840 -1270 1279 -1688 1991
-2648 4514 -2859 7510 -31 434 -40 715 -40 1240 0 644 19 1012 80 1565 281
2535 1290 4855 2953 6790 324 376 818 885 1161 1196 1519 1376 3310 2438 5275
3126 1485 519 3061 784 4280 718z"/>
<path d="M96185 84490 c-3240 -99 -6241 -803 -9090 -2130 -250 -117 -881 -435
-1120 -565 -1979 -1075 -3721 -2380 -5320 -3984 -131 -132 -236 -243 -233
-246 3 -4 52 7 109 24 576 166 1371 304 2114 365 476 40 835 43 1185 11 1673
-154 3494 -922 4885 -2060 313 -255 709 -631 957 -906 263 -292 557 -668 748
-954 29 -44 56 -84 61 -89 4 -4 61 21 126 57 1417 778 3416 1305 5338 1407
245 13 854 13 1116 0 1803 -90 3681 -564 5406 -1366 1855 -862 3462 -2070
4708 -3539 1597 -1883 2572 -4186 2859 -6755 228 -2045 37 -3972 -578 -5825
-563 -1693 -1482 -3287 -2685 -4660 -527 -601 -1165 -1212 -1786 -1710 -1437
-1154 -3105 -2024 -4830 -2520 -1433 -412 -2917 -576 -4300 -475 -1324 97
-2745 433 -4055 958 -2149 861 -4008 2230 -5439 4007 -928 1152 -1680 2462
-2256 3930 -54 138 -101 254 -105 258 -4 5 -125 -50 -268 -122 -145 -72 -357
-168 -479 -217 -430 -170 -576 -271 -646 -448 -16 -40 -21 -74 -21 -156 0
-141 27 -246 165 -629 190 -527 261 -791 343 -1277 91 -542 134 -1035 143
-1659 22 -1562 -219 -2895 -755 -4176 -399 -953 -991 -1974 -1597 -2756 l-76
-98 223 -220 c802 -792 1719 -1561 2663 -2235 1629 -1162 3423 -2107 5285
-2783 1237 -449 2525 -788 3817 -1006 1637 -276 3256 -365 5018 -276 4836 246
9083 1859 12740 4839 1172 954 2335 2103 3309 3265 1352 1615 2432 3340 3246
5186 405 918 770 1950 1035 2927 424 1557 678 3177 765 4863 43 848 41 1905
-5 2740 -272 4864 -1955 9144 -5063 12873 -682 817 -1472 1648 -2277 2392
-2718 2513 -5775 4209 -9140 5070 -1474 378 -2933 588 -4590 660 -316 14
-1321 20 -1650 10z"/>
<path d="M76326 71899 c-24 -52 -72 -152 -106 -224 -414 -865 -746 -1724
-1019 -2635 -69 -231 -361 -1259 -365 -1284 -1 -11 331 -67 1099 -187 819
-127 1040 -166 1465 -260 444 -99 996 -240 1917 -490 221 -60 408 -109 415
-109 7 0 -95 56 -227 123 -1522 781 -2431 1657 -2869 2765 -259 656 -351 1442
-265 2275 6 60 8 111 5 114 -3 3 -25 -37 -50 -88z"/>
</g>
</svg>
