<?xml version="1.0" standalone="no"?>
<!DOCTYPE svg PUBLIC "-//W3C//DTD SVG 20010904//EN"
 "http://www.w3.org/TR/2001/REC-SVG-20010904/DTD/svg10.dtd">
<svg version="1.0" xmlns="http://www.w3.org/2000/svg"
 width="741.000000pt" height="307.000000pt" viewBox="0 0 741.000000 307.000000"
 preserveAspectRatio="xMidYMid meet">
<metadata>
Created by potrace 1.16, written by Peter Selinger 2001-2019
</metadata>
<g transform="translate(0.000000,307.000000) scale(0.100000,-0.100000)"
fill="#000000" stroke="none">
<path d="M1381 3010 c-457 -58 -865 -332 -1109 -745 -45 -77 -117 -250 -126
-305 -4 -19 7 4 23 52 132 386 436 715 814 880 330 144 766 155 1092 27 191
-74 335 -170 496 -329 144 -143 215 -240 223 -305 18 -155 28 -194 65 -270 22
-44 56 -98 76 -120 l36 -40 -36 49 c-77 104 -103 177 -126 346 -11 80 -15 90
-66 160 -31 41 -108 127 -173 191 -210 207 -436 334 -696 389 -114 24 -374 34
-493 20z"/>
<path d="M3464 3005 c-194 -42 -407 -190 -524 -364 -80 -119 -139 -278 -127
-341 3 -20 5 -18 6 10 5 132 104 322 235 453 242 242 568 312 836 180 91 -44
194 -142 234 -223 15 -30 24 -44 20 -30 -11 44 -64 118 -125 174 -139 129
-357 184 -555 141z"/>
<path d="M1397 2990 c-310 -39 -554 -146 -787 -345 -189 -161 -350 -394 -424
-615 -52 -157 -69 -271 -70 -465 0 -199 14 -300 66 -460 96 -300 329 -595 614
-777 120 -77 303 -151 454 -184 121 -27 487 -27 608 -1 271 60 492 179 689
372 l103 100 -55 110 c-64 127 -84 197 -91 315 -13 195 65 387 221 546 67 67
205 167 259 187 6 3 -14 29 -45 58 -68 66 -109 125 -139 204 -20 50 -23 80
-24 181 l-1 121 -55 74 c-75 102 -238 261 -346 337 -157 112 -352 195 -534
228 -101 18 -348 26 -443 14z m338 -611 c98 -25 246 -93 329 -153 93 -67 197
-183 244 -273 65 -126 84 -199 89 -351 6 -153 -6 -250 -46 -364 -40 -112 -86
-183 -181 -279 -112 -113 -231 -181 -395 -225 -108 -29 -341 -27 -454 4 -171
47 -306 125 -413 241 -115 124 -178 275 -198 477 -37 364 131 671 460 843 205
107 365 129 565 80z"/>
<path d="M3465 2983 c-144 -30 -266 -97 -388 -213 -164 -153 -248 -332 -248
-525 -1 -161 60 -296 188 -415 l72 -67 -26 -12 c-14 -7 -60 -35 -102 -63 -321
-215 -454 -485 -381 -774 97 -383 490 -682 1020 -775 146 -26 392 -28 530 -6
281 47 518 163 678 331 83 88 132 166 168 271 25 70 28 95 28 195 -1 95 -5
125 -23 175 -44 114 -46 108 63 159 210 98 352 227 431 390 141 296 79 567
-167 727 -91 59 -182 84 -298 83 -147 -1 -247 -46 -308 -139 -108 -163 -37
-397 147 -484 47 -22 70 -26 146 -26 81 0 95 3 138 28 53 32 101 96 118 162 6
22 9 76 7 120 -5 89 -38 178 -86 228 l-26 27 59 -20 c233 -80 334 -299 233
-505 -31 -62 -85 -113 -142 -131 -72 -24 -172 -14 -501 50 -396 77 -421 80
-605 80 -127 1 -180 -3 -230 -17 -83 -22 -196 -76 -241 -113 -57 -49 -77 -59
-29 -15 53 49 181 114 265 136 146 39 356 30 657 -26 86 -16 163 -29 170 -28
32 2 -101 32 -252 56 -210 34 -466 38 -570 10 -206 -56 -341 -168 -445 -368
-173 -335 -127 -668 118 -843 61 -44 146 -86 170 -86 7 1 -14 12 -46 25 -60
25 -192 113 -183 122 3 3 23 -10 46 -30 52 -44 149 -92 221 -107 80 -18 202
-9 261 19 74 36 133 94 170 169 30 61 33 74 33 162 0 88 -3 101 -33 162 -57
116 -152 178 -285 186 -112 7 -159 -9 -228 -77 -40 -40 -62 -73 -78 -116 -30
-78 -38 -206 -19 -298 l15 -68 -44 43 c-86 83 -124 195 -103 302 41 212 270
386 508 386 239 0 625 -159 726 -299 56 -78 69 -124 69 -236 -2 -247 -115
-466 -297 -574 -183 -109 -456 -112 -702 -10 -150 63 -301 181 -390 306 -55
76 -116 206 -140 298 -28 105 -25 342 4 450 44 161 145 332 253 429 65 58 179
129 247 152 28 10 52 22 52 26 0 3 -33 4 -72 1 -224 -17 -436 130 -493 341
-23 86 -17 228 14 307 58 151 207 239 405 239 82 0 186 -18 222 -38 7 -4 -26
-7 -74 -7 -100 -1 -161 -24 -222 -85 -105 -105 -100 -242 13 -352 146 -143
357 -110 456 71 48 88 48 158 3 255 -99 211 -377 327 -647 269z"/>
<path d="M5810 2959 c-96 -7 -247 -33 -259 -44 -7 -8 9 -5 79 11 105 24 403
30 530 10 382 -61 727 -291 965 -647 101 -149 165 -302 206 -487 14 -63 18
-73 14 -34 -3 29 -17 92 -31 140 -110 379 -407 733 -772 916 -212 107 -465
153 -732 135z"/>
<path d="M5685 2924 c-283 -47 -530 -169 -759 -372 -51 -46 -50 -43 11 15 132
128 305 233 503 304 58 21 100 38 93 38 -22 1 -189 -62 -268 -101 -113 -57
-246 -150 -339 -239 -85 -80 -84 -86 3 -68 69 15 200 12 261 -7 119 -35 257
-129 313 -213 l16 -24 62 27 c158 72 385 84 564 31 172 -50 300 -128 415 -252
152 -163 219 -359 207 -606 -10 -212 -83 -381 -236 -541 -190 -198 -455 -299
-703 -267 -301 39 -544 214 -677 490 -22 46 -42 86 -45 88 -7 8 -87 -37 -92
-52 -4 -8 2 -36 11 -62 25 -71 31 -241 11 -332 -17 -82 -58 -176 -107 -248
l-32 -46 64 -62 c171 -162 430 -291 686 -342 119 -24 402 -24 529 0 400 74
757 325 977 688 133 218 191 440 191 729 0 321 -67 547 -235 801 -80 121 -291
332 -409 411 -165 109 -345 181 -529 212 -116 20 -372 20 -486 0z"/>
<path d="M3549 2837 c-37 -13 -85 -35 -108 -50 -173 -114 -205 -423 -63 -609
44 -58 157 -148 185 -148 7 0 -7 11 -30 24 -157 90 -233 221 -233 401 0 253
150 396 414 395 l91 -1 -53 -18 c-139 -48 -234 -193 -202 -310 15 -56 21 -49
8 10 -31 136 98 286 265 307 47 5 49 7 22 13 -16 4 -75 7 -130 8 -79 0 -114
-4 -166 -22z"/>
<path d="M4920 2486 c-25 -6 -54 -18 -65 -25 l-20 -13 20 7 c11 3 54 11 96 18
220 32 454 -95 557 -302 23 -46 42 -78 42 -71 0 7 -17 44 -37 84 -76 143 -224
256 -383 290 -52 12 -58 15 -29 15 103 3 253 -73 350 -177 l69 -75 58 26 c31
13 64 27 72 30 11 4 12 6 1 6 -7 1 -40 -11 -73 -26 l-60 -27 -26 35 c-70 92
-184 169 -301 203 -65 19 -206 20 -271 2z"/>
<path d="M4632 2178 c-1 -21 -7 -38 -13 -38 -5 0 -7 6 -3 13 6 9 3 8 -8 -1 -9
-8 -15 -19 -12 -26 3 -7 -6 -37 -19 -67 -14 -29 -34 -86 -45 -126 l-20 -72 71
-11 c129 -21 243 -53 221 -61 -12 -5 -14 -8 -4 -8 17 -1 47 16 40 22 -3 2 -29
17 -59 33 -100 54 -162 154 -160 258 1 51 6 38 14 -38 5 -43 10 -55 17 -45 7
10 8 8 3 -8 -3 -13 -1 -31 5 -40 8 -15 9 -12 4 12 l-6 30 21 -33 c23 -36 26
-46 11 -37 -16 10 -12 -11 5 -25 11 -9 15 -9 15 -1 0 7 5 9 11 5 8 -5 8 -9 -1
-14 -9 -5 -9 -9 -1 -14 6 -4 16 -4 23 0 7 5 8 3 3 -6 -6 -9 -4 -11 5 -5 9 6
11 4 5 -5 -6 -9 -4 -11 5 -5 9 6 11 4 5 -5 -6 -10 -4 -12 9 -7 10 4 15 3 11
-3 -6 -9 8 -14 28 -11 4 0 7 -4 7 -9 0 -5 3 -9 8 -8 4 1 31 -6 61 -15 30 -9
82 -16 115 -16 60 2 60 2 -20 9 -198 17 -328 146 -345 339 -3 42 -7 59 -7 39z"/>
<path d="M5558 1994 c10 -194 -66 -388 -208 -532 -78 -79 -150 -130 -273 -192
-127 -64 -126 -62 -88 -163 13 -36 25 -99 30 -163 4 -57 11 -107 14 -111 4 -3
7 38 7 93 0 71 -3 95 -11 84 -7 -11 -8 -4 -3 24 5 31 4 37 -6 31 -10 -6 -12
-4 -7 9 4 10 2 35 -4 57 -10 30 -9 42 1 54 20 24 91 58 101 48 4 -4 30 -53 58
-108 88 -176 208 -297 376 -380 452 -223 991 -5 1165 473 16 46 30 90 30 100
0 9 -14 -23 -31 -73 -75 -222 -220 -390 -424 -491 -126 -62 -224 -86 -360 -87
-193 -1 -372 60 -523 178 -95 74 -162 158 -223 280 -65 129 -67 131 -110 110
-45 -23 -79 -55 -79 -74 0 -14 -1 -14 -10 -1 -23 35 -11 48 93 98 126 60 251
154 324 241 66 80 136 220 157 318 16 74 20 199 7 243 -5 14 -6 -16 -3 -66z"/>
<path d="M3754 1921 c-166 -80 -288 -204 -371 -376 -70 -145 -86 -223 -86
-405 0 -140 2 -164 26 -243 79 -259 243 -445 492 -558 69 -31 197 -69 230 -69
11 1 -23 12 -75 26 -52 13 -135 44 -185 69 -230 114 -377 287 -451 530 -25 82
-27 105 -27 245 0 186 17 263 92 415 83 166 192 275 356 356 55 27 95 49 89
49 -5 0 -46 -17 -90 -39z"/>
<path d="M2970 1855 c0 -5 19 -26 43 -46 23 -20 40 -39 37 -41 -3 -2 -45 -31
-95 -63 -51 -34 -131 -100 -186 -154 -150 -150 -216 -283 -226 -452 -23 -376
312 -758 804 -918 115 -38 249 -68 259 -59 2 3 -29 11 -68 18 -102 17 -288 80
-388 130 -370 184 -601 491 -600 797 1 245 160 478 448 656 l71 44 -50 49
c-27 26 -49 44 -49 39z"/>
<path d="M3855 1277 c-91 -36 -157 -105 -197 -205 -19 -48 -22 -77 -23 -179 0
-66 -3 -119 -7 -117 -16 10 -63 100 -74 143 -9 33 -13 38 -13 20 -1 -36 52
-139 90 -174 25 -24 30 -26 24 -10 -14 37 -18 189 -6 245 24 115 92 214 179
256 58 29 221 27 284 -4 70 -35 131 -93 169 -164 32 -60 34 -68 34 -163 0 -88
-3 -107 -27 -157 -35 -76 -107 -151 -177 -185 -51 -26 -65 -28 -174 -28 -83 0
-108 -2 -85 -9 18 -4 72 -6 119 -4 67 3 97 10 141 31 69 34 151 119 186 194
24 51 27 70 27 158 0 90 -3 105 -28 154 -40 75 -109 146 -175 178 -46 23 -72
28 -146 30 -55 2 -103 -2 -121 -10z"/>
<path d="M151 1144 c-1 -6 7 -35 18 -65 118 -344 411 -670 756 -842 163 -81
390 -139 534 -136 61 2 59 2 -29 9 -349 27 -631 161 -896 425 -180 179 -285
341 -360 555 -12 36 -23 60 -23 54z"/>
<path d="M5014 810 c3 -25 2 -39 -1 -31 -3 9 -15 -13 -28 -51 -31 -93 -87
-180 -173 -269 -187 -196 -459 -317 -782 -348 -65 -6 -73 -9 -35 -10 28 0 91
6 140 14 334 54 628 224 776 450 49 73 68 80 22 8 -65 -105 -65 -89 -3 -145
136 -123 290 -221 448 -285 59 -23 114 -43 122 -43 8 1 -30 18 -85 39 -124 47
-168 69 -275 138 -89 58 -250 189 -250 204 0 4 17 35 39 68 70 110 111 235 91
281 -9 22 -10 19 -6 -20z"/>
</g>
</svg>
